#!OML:ASF H:\Terrain\Patient Classification 1\Animal2\Wednesday\Animal2.ASF
:FULLY-SPECIFIED
:DEGREES
2998
root 11.7586 16.8037 -22.882 403.08 -6.1292 -359.498
lowerback 26.1213 -0.886098 3.98187
upperback -5.34566 0.39358 1.05678
thorax -20.5257 -0.234295 -1.19186
lowerneck 4.27278 15.0231 15.9568
upperneck -26.9505 16.1713 -39.8049
head -2.66662 10.566 -16.7403
rclavicle -1.86858e-014 -5.56597e-015
rhumerus -56.0631 -24.1541 -11.8893
rradius 20.4217
rwrist 6.90136
rhand -56.4972 24.5116
rfingers 7.12502
rthumb -28.8113 -3.28448
lclavicle -1.86858e-014 -5.56597e-015
lhumerus -58.3764 16.5755 28.1487
lradius 29.7295
lwrist 46.222
lhand -44.6929 32.491
lfingers 7.12502
lthumb -17.4881 61.7244
rfemur -55.1779 6.96672 -15.1282
rtibia 46.9555
rfoot -6.72912 -17.099
rtoes 7.02255
lfemur -73.3732 5.22486 -22.4969
ltibia 49.7037
lfoot -17.9739 -9.28894
ltoes -10.0741
2999
root 11.6908 16.7232 -22.9841 403.451 -4.906 -359.069
lowerback 26.252 -1.07279 4.25174
upperback -5.45789 0.234614 0.995093
thorax -20.7506 -0.34369 -1.34455
lowerneck 4.01897 14.8603 15.9997
upperneck -26.9587 15.9362 -39.6506
head -2.71147 10.415 -16.7092
rclavicle 6.75868e-015 -2.50469e-014
rhumerus -55.831 -24.2064 -12.8669
rradius 21.1515
rwrist 4.76567
rhand -53.1694 20.575
rfingers 7.12502
rthumb -25.6281 -7.72038
lclavicle 6.75868e-015 -2.50469e-014
lhumerus -57.5566 17.0396 29.8473
lradius 30.0496
lwrist 46.2728
lhand -44.5834 32.0888
lfingers 7.12502
lthumb -17.3827 61.3315
rfemur -54.8578 6.31271 -14.8793
rtibia 47.1766
rfoot -8.54489 -17.9422
rtoes 4.66511
lfemur -74.8456 4.04319 -21.5085
ltibia 50.5642
lfoot -17.8735 -8.78991
ltoes -11.6785
3000
root 11.6021 16.6358 -23.0905 403.878 -4.10675 -358.812
lowerback 26.3712 -1.03293 4.055
upperback -5.55062 0.213849 0.915598
thorax -20.9402 -0.33929 -1.31613
lowerneck 3.70396 14.6691 16.0487
upperneck -26.9581 15.6567 -39.4606
head -2.76025 10.2321 -16.6658
rclavicle -1.19271e-015 -5.96354e-015
rhumerus -55.4038 -23.2979 -14.9607
rradius 21.2604
rwrist 3.43988
rhand -53.702 20.261
rfingers 7.12502
rthumb -26.1381 -7.9599
lclavicle -1.19271e-015 -5.96354e-015
lhumerus -56.6668 17.4353 31.5754
lradius 30.2917
lwrist 46.3796
lhand -44.7726 32.1155
lfingers 7.12502
lthumb -17.5648 61.342
rfemur -54.9566 6.07461 -14.9056
rtibia 47.3877
rfoot -10.7257 -18.3645
rtoes 6.38916
lfemur -76.3969 3.27129 -20.4975
ltibia 51.4723
lfoot -17.7791 -8.23485
ltoes -12.7949
3001
root 11.5054 16.5646 -23.1873 404.13 -3.54969 -358.799
lowerback 26.6979 -0.889244 3.6243
upperback -5.57798 0.275864 0.921597
thorax -21.1574 -0.263137 -1.09425
lowerneck 3.49179 14.5378 16.1186
upperneck -27.0439 15.4483 -39.3832
head -2.81045 10.1075 -16.6793
rclavicle -1.59028e-015 -7.95139e-015
rhumerus -55.2456 -23.3229 -16.3143
rradius 21.351
rwrist 3.23945
rhand -54.1185 20.9801
rfingers 7.12502
rthumb -26.5367 -7.18121
lclavicle -1.59028e-015 -7.95139e-015
lhumerus -56.0948 17.7642 33.3706
lradius 30.7445
lwrist 46.7652
lhand -45.187 31.8427
lfingers 7.12502
lthumb -17.9636 61.0331
rfemur -55.2097 6.31368 -14.9148
rtibia 47.6774
rfoot -12.9859 -18.4648
rtoes 8.11523
lfemur -77.5874 2.80328 -19.3747
ltibia 52.379
lfoot -17.894 -7.65297
ltoes -13.6053
3002
root 11.412 16.5277 -23.2636 403.962 -3.08159 -358.668
lowerback 27.3229 -0.738351 3.0312
upperback -5.41662 0.292363 0.924795
thorax -21.2938 -0.181528 -0.76484
lowerneck 3.4313 14.4738 16.1227
upperneck -27.422 15.2775 -39.427
head -2.94947 10.0498 -16.7782
rclavicle 4.37326e-015 -3.97569e-015
rhumerus -55.423 -24.2647 -16.8061
rradius 21.0337
rwrist 4.80297
rhand -54.6621 24.9099
rfingers 7.12502
rthumb -27.0569 -3.1717
lclavicle 4.37326e-015 -3.97569e-015
lhumerus -55.501 18.4927 35.0752
lradius 30.881
lwrist 46.6174
lhand -45.4301 30.443
lfingers 7.12502
lthumb -18.1975 59.6118
rfemur -54.9272 6.72868 -14.8815
rtibia 47.7228
rfoot -14.6703 -18.8146
rtoes 9.81885
lfemur -77.993 2.29272 -18.4452
ltibia 52.9458
lfoot -18.2197 -6.99245
ltoes -15.8833
3003
root 11.3378 16.4162 -23.3948 405.893 -2.50303 -358.646
lowerback 25.5634 -0.587356 2.9823
upperback -5.67422 0.393818 0.838091
thorax -20.6489 -0.134995 -0.883664
lowerneck 3.29947 14.447 15.9482
upperneck -27.8874 15.1403 -39.2585
head -3.14627 10.004 -16.7484
rclavicle -7.95139e-016 3.97569e-015
rhumerus -55.7072 -25.0372 -17.4553
rradius 20.6366
rwrist 6.02291
rhand -55.1268 29.1023
rfingers 7.12502
rthumb -27.5015 1.09058
lclavicle -7.95139e-016 3.97569e-015
lhumerus -54.598 19.4297 36.6379
lradius 30.7377
lwrist 45.9067
lhand -45.4145 28.9793
lfingers 7.12502
lthumb -18.1825 58.1495
rfemur -57.1515 5.40554 -14.9469
rtibia 48.1118
rfoot -15.3447 -19.4075
rtoes 7.70765
lfemur -81.1561 1.62135 -17.1584
ltibia 53.5034
lfoot -17.8649 -5.83642
ltoes -18.4729
3004
root 11.2272 16.4627 -23.4061 403.857 -1.54351 -358.408
lowerback 28.2189 -0.690821 2.83821
upperback -5.18886 0.283312 0.765017
thorax -21.4829 -0.175477 -0.834243
lowerneck 3.11345 14.3465 15.9263
upperneck -28.0165 14.9931 -38.9321
head -3.2467 9.8976 -16.6332
rclavicle -7.95139e-016 -1.55052e-014
rhumerus -55.9923 -25.4622 -18.4149
rradius 20.8375
rwrist 5.88121
rhand -54.5901 27.0671
rfingers 7.12502
rthumb -26.988 -1.02514
lclavicle -7.95139e-016 -1.55052e-014
lhumerus -53.798 19.5901 38.3271
lradius 31.0422
lwrist 45.7371
lhand -45.0911 29.3572
lfingers 7.12502
lthumb -17.8713 58.5561
rfemur -54.736 7.11814 -14.2599
rtibia 48.3143
rfoot -17.2363 -21.1845
rtoes 4.09468
lfemur -78.9225 0.819898 -16.0971
ltibia 53.6713
lfoot -18.5797 -5.01074
ltoes -21.1891
3005
root 11.1459 16.3914 -23.4995 404.631 -0.838443 -358.07
lowerback 27.8543 -0.723401 2.81717
upperback -5.38778 0.181642 0.572757
thorax -21.5513 -0.233882 -0.998929
lowerneck 2.94289 14.184 16.0362
upperneck -27.9554 14.8044 -38.6296
head -3.28785 9.74969 -16.5408
rclavicle 3.57812e-015 1.59028e-015
rhumerus -56.605 -26.3516 -18.5267
rradius 20.2804
rwrist 7.81958
rhand -54.4401 27.8323
rfingers 7.12502
rthumb -26.8445 -0.28206
lclavicle 3.57812e-015 1.59028e-015
lhumerus -53.2983 19.3188 40.0515
lradius 31.5514
lwrist 45.679
lhand -44.6369 30.1447
lfingers 7.12502
lthumb -17.4342 59.3829
rfemur -55.6617 6.34622 -14.1656
rtibia 49.0265
rfoot -18.0794 -22.0297
rtoes 0.497304
lfemur -80.4734 0.144789 -15.3316
ltibia 54.025
lfoot -18.5593 -3.96714
ltoes -23.9052
3006
root 11.0598 16.3373 -23.5722 404.867 -0.313837 -357.694
lowerback 28.0227 -0.715152 2.52554
upperback -5.39519 0.0537024 0.395181
thorax -21.6593 -0.265822 -0.982643
lowerneck 2.5742 14.0652 16.0088
upperneck -27.9703 14.6281 -38.3056
head -3.32825 9.60838 -16.3953
rclavicle 7.95139e-016 -1.07344e-014
rhumerus -56.9417 -26.7241 -19.539
rradius 20.4606
rwrist 8.38736
rhand -54.2162 27.1652
rfingers 7.12502
rthumb -26.6303 -0.981869
lclavicle 7.95139e-016 -1.07344e-014
lhumerus -52.7961 19.6007 41.5183
lradius 31.6728
lwrist 45.0797
lhand -44.3115 29.9544
lfingers 7.12502
lthumb -17.121 59.22
rfemur -55.9849 5.95022 -14.0533
rtibia 49.6856
rfoot -19.0244 -22.3708
rtoes -2.88976
lfemur -81.2635 -0.502175 -14.6074
ltibia 54.2871
lfoot -18.5521 -3.32501
ltoes -25.1693
